<mxfile host="app.diagrams.net" modified="2024-05-26T16:00:16.860Z" agent="Mozilla/5.0 (Windows NT 10.0; Win64; x64; rv:126.0) Gecko/20100101 Firefox/126.0" etag="lpn-37SEYd0JtXSxNOfd" version="24.4.8" type="device">
  <diagram name="Page-1" id="5UbIkf32OJMgZAtzeXK8">
    <mxGraphModel dx="1195" dy="645" grid="1" gridSize="10" guides="1" tooltips="1" connect="1" arrows="1" fold="1" page="1" pageScale="1" pageWidth="850" pageHeight="1100" background="none" math="0" shadow="0">
      <root>
        <mxCell id="0" />
        <mxCell id="1" parent="0" />
        <mxCell id="H3817T3jhhaUqe4IGIeC-52" value="" style="rounded=0;whiteSpace=wrap;html=1;fontFamily=Helvetica;fontSize=11;fontColor=default;labelBackgroundColor=default;" vertex="1" parent="1">
          <mxGeometry x="65" y="50" width="720" height="480" as="geometry" />
        </mxCell>
        <mxCell id="H3817T3jhhaUqe4IGIeC-40" value="" style="shape=cylinder3;whiteSpace=wrap;html=1;boundedLbl=1;backgroundOutline=1;size=15;fontFamily=Helvetica;fontSize=11;fontColor=default;labelBackgroundColor=default;" vertex="1" parent="1">
          <mxGeometry x="115" y="70" width="640" height="332" as="geometry" />
        </mxCell>
        <mxCell id="H3817T3jhhaUqe4IGIeC-1" value="" style="rounded=1;whiteSpace=wrap;html=1;" vertex="1" parent="1">
          <mxGeometry x="155" y="180" width="420" height="140" as="geometry" />
        </mxCell>
        <mxCell id="H3817T3jhhaUqe4IGIeC-2" value="" style="rounded=0;whiteSpace=wrap;html=1;" vertex="1" parent="1">
          <mxGeometry x="175" y="200" width="30" height="30" as="geometry" />
        </mxCell>
        <mxCell id="H3817T3jhhaUqe4IGIeC-4" value="" style="rounded=0;whiteSpace=wrap;html=1;" vertex="1" parent="1">
          <mxGeometry x="224" y="199" width="30" height="30" as="geometry" />
        </mxCell>
        <mxCell id="H3817T3jhhaUqe4IGIeC-21" style="edgeStyle=orthogonalEdgeStyle;rounded=0;orthogonalLoop=1;jettySize=auto;html=1;entryX=0.5;entryY=1;entryDx=0;entryDy=0;strokeColor=default;align=center;verticalAlign=middle;fontFamily=Helvetica;fontSize=11;fontColor=default;labelBackgroundColor=default;endArrow=none;endFill=0;" edge="1" parent="1" source="H3817T3jhhaUqe4IGIeC-6" target="H3817T3jhhaUqe4IGIeC-2">
          <mxGeometry relative="1" as="geometry" />
        </mxCell>
        <mxCell id="H3817T3jhhaUqe4IGIeC-22" style="edgeStyle=orthogonalEdgeStyle;rounded=0;orthogonalLoop=1;jettySize=auto;html=1;entryX=1;entryY=0.5;entryDx=0;entryDy=0;strokeColor=default;align=center;verticalAlign=middle;fontFamily=Helvetica;fontSize=11;fontColor=default;labelBackgroundColor=default;endArrow=none;endFill=0;" edge="1" parent="1" source="H3817T3jhhaUqe4IGIeC-6" target="H3817T3jhhaUqe4IGIeC-4">
          <mxGeometry relative="1" as="geometry">
            <Array as="points">
              <mxPoint x="285" y="214" />
            </Array>
          </mxGeometry>
        </mxCell>
        <mxCell id="H3817T3jhhaUqe4IGIeC-24" style="edgeStyle=orthogonalEdgeStyle;rounded=0;orthogonalLoop=1;jettySize=auto;html=1;entryX=0;entryY=0.5;entryDx=0;entryDy=0;strokeColor=default;align=center;verticalAlign=middle;fontFamily=Helvetica;fontSize=11;fontColor=default;labelBackgroundColor=default;endArrow=none;endFill=0;" edge="1" parent="1" source="H3817T3jhhaUqe4IGIeC-6" target="H3817T3jhhaUqe4IGIeC-8">
          <mxGeometry relative="1" as="geometry">
            <Array as="points">
              <mxPoint x="345" y="273" />
              <mxPoint x="345" y="265" />
            </Array>
          </mxGeometry>
        </mxCell>
        <mxCell id="H3817T3jhhaUqe4IGIeC-6" value="" style="rounded=0;whiteSpace=wrap;html=1;" vertex="1" parent="1">
          <mxGeometry x="270" y="258" width="30" height="30" as="geometry" />
        </mxCell>
        <mxCell id="H3817T3jhhaUqe4IGIeC-23" style="edgeStyle=orthogonalEdgeStyle;rounded=0;orthogonalLoop=1;jettySize=auto;html=1;strokeColor=default;align=center;verticalAlign=middle;fontFamily=Helvetica;fontSize=11;fontColor=default;labelBackgroundColor=default;endArrow=none;endFill=0;" edge="1" parent="1" source="H3817T3jhhaUqe4IGIeC-7">
          <mxGeometry relative="1" as="geometry">
            <mxPoint x="285" y="215" as="targetPoint" />
          </mxGeometry>
        </mxCell>
        <mxCell id="H3817T3jhhaUqe4IGIeC-7" value="" style="rounded=0;whiteSpace=wrap;html=1;" vertex="1" parent="1">
          <mxGeometry x="315" y="200" width="30" height="30" as="geometry" />
        </mxCell>
        <mxCell id="H3817T3jhhaUqe4IGIeC-26" style="edgeStyle=orthogonalEdgeStyle;rounded=0;orthogonalLoop=1;jettySize=auto;html=1;entryX=0.5;entryY=1;entryDx=0;entryDy=0;strokeColor=default;align=center;verticalAlign=middle;fontFamily=Helvetica;fontSize=11;fontColor=default;labelBackgroundColor=default;endArrow=none;endFill=0;" edge="1" parent="1" source="H3817T3jhhaUqe4IGIeC-8" target="H3817T3jhhaUqe4IGIeC-9">
          <mxGeometry relative="1" as="geometry" />
        </mxCell>
        <mxCell id="H3817T3jhhaUqe4IGIeC-8" value="" style="rounded=0;whiteSpace=wrap;html=1;" vertex="1" parent="1">
          <mxGeometry x="375" y="250" width="30" height="30" as="geometry" />
        </mxCell>
        <mxCell id="H3817T3jhhaUqe4IGIeC-9" value="" style="rounded=0;whiteSpace=wrap;html=1;" vertex="1" parent="1">
          <mxGeometry x="435" y="199" width="30" height="30" as="geometry" />
        </mxCell>
        <mxCell id="H3817T3jhhaUqe4IGIeC-27" style="edgeStyle=orthogonalEdgeStyle;rounded=0;orthogonalLoop=1;jettySize=auto;html=1;strokeColor=default;align=center;verticalAlign=middle;fontFamily=Helvetica;fontSize=11;fontColor=default;labelBackgroundColor=default;endArrow=none;endFill=0;entryX=1.044;entryY=0.514;entryDx=0;entryDy=0;entryPerimeter=0;" edge="1" parent="1" source="H3817T3jhhaUqe4IGIeC-10" target="H3817T3jhhaUqe4IGIeC-8">
          <mxGeometry relative="1" as="geometry">
            <mxPoint x="445" y="270" as="targetPoint" />
          </mxGeometry>
        </mxCell>
        <mxCell id="H3817T3jhhaUqe4IGIeC-43" style="edgeStyle=orthogonalEdgeStyle;rounded=0;orthogonalLoop=1;jettySize=auto;html=1;entryX=0.774;entryY=1.003;entryDx=0;entryDy=0;strokeColor=default;align=center;verticalAlign=middle;fontFamily=Helvetica;fontSize=11;fontColor=default;labelBackgroundColor=default;endArrow=classic;endFill=1;startArrow=classic;startFill=1;entryPerimeter=0;exitX=0.5;exitY=1;exitDx=0;exitDy=0;" edge="1" parent="1" source="H3817T3jhhaUqe4IGIeC-10" target="H3817T3jhhaUqe4IGIeC-1">
          <mxGeometry relative="1" as="geometry">
            <Array as="points" />
          </mxGeometry>
        </mxCell>
        <mxCell id="H3817T3jhhaUqe4IGIeC-10" value="" style="rounded=0;whiteSpace=wrap;html=1;" vertex="1" parent="1">
          <mxGeometry x="465" y="258" width="30" height="30" as="geometry" />
        </mxCell>
        <mxCell id="H3817T3jhhaUqe4IGIeC-28" style="edgeStyle=orthogonalEdgeStyle;rounded=0;orthogonalLoop=1;jettySize=auto;html=1;entryX=0.5;entryY=0;entryDx=0;entryDy=0;strokeColor=default;align=center;verticalAlign=middle;fontFamily=Helvetica;fontSize=11;fontColor=default;labelBackgroundColor=default;endArrow=none;endFill=0;" edge="1" parent="1" source="H3817T3jhhaUqe4IGIeC-11" target="H3817T3jhhaUqe4IGIeC-10">
          <mxGeometry relative="1" as="geometry" />
        </mxCell>
        <mxCell id="H3817T3jhhaUqe4IGIeC-11" value="" style="rounded=0;whiteSpace=wrap;html=1;" vertex="1" parent="1">
          <mxGeometry x="515" y="211" width="30" height="30" as="geometry" />
        </mxCell>
        <mxCell id="H3817T3jhhaUqe4IGIeC-12" value="" style="rounded=0;whiteSpace=wrap;html=1;" vertex="1" parent="1">
          <mxGeometry x="385" y="199" width="30" height="30" as="geometry" />
        </mxCell>
        <mxCell id="H3817T3jhhaUqe4IGIeC-13" value="Real Tables" style="text;html=1;align=center;verticalAlign=middle;whiteSpace=wrap;rounded=0;" vertex="1" parent="1">
          <mxGeometry x="150" y="288" width="120" height="30" as="geometry" />
        </mxCell>
        <mxCell id="H3817T3jhhaUqe4IGIeC-18" style="edgeStyle=orthogonalEdgeStyle;rounded=0;orthogonalLoop=1;jettySize=auto;html=1;entryX=0.051;entryY=0.541;entryDx=0;entryDy=0;entryPerimeter=0;endArrow=none;endFill=0;" edge="1" parent="1" source="H3817T3jhhaUqe4IGIeC-2" target="H3817T3jhhaUqe4IGIeC-4">
          <mxGeometry relative="1" as="geometry" />
        </mxCell>
        <mxCell id="H3817T3jhhaUqe4IGIeC-25" style="edgeStyle=orthogonalEdgeStyle;rounded=0;orthogonalLoop=1;jettySize=auto;html=1;entryX=1.005;entryY=0.356;entryDx=0;entryDy=0;entryPerimeter=0;strokeColor=default;align=center;verticalAlign=middle;fontFamily=Helvetica;fontSize=11;fontColor=default;labelBackgroundColor=default;endArrow=none;endFill=0;" edge="1" parent="1" source="H3817T3jhhaUqe4IGIeC-12" target="H3817T3jhhaUqe4IGIeC-6">
          <mxGeometry relative="1" as="geometry">
            <Array as="points">
              <mxPoint x="400" y="240" />
              <mxPoint x="345" y="240" />
              <mxPoint x="345" y="273" />
              <mxPoint x="300" y="273" />
            </Array>
          </mxGeometry>
        </mxCell>
        <mxCell id="H3817T3jhhaUqe4IGIeC-29" value="Store Procedures" style="rounded=1;whiteSpace=wrap;html=1;fontFamily=Helvetica;fontSize=11;fontColor=default;labelBackgroundColor=default;" vertex="1" parent="1">
          <mxGeometry x="155" y="320" width="420" height="40" as="geometry" />
        </mxCell>
        <mxCell id="H3817T3jhhaUqe4IGIeC-34" style="edgeStyle=orthogonalEdgeStyle;rounded=0;orthogonalLoop=1;jettySize=auto;html=1;entryX=0.25;entryY=1;entryDx=0;entryDy=0;strokeColor=default;align=center;verticalAlign=middle;fontFamily=Helvetica;fontSize=11;fontColor=default;labelBackgroundColor=default;endArrow=none;endFill=0;startArrow=classic;startFill=1;exitX=0.25;exitY=1;exitDx=0;exitDy=0;" edge="1" parent="1" source="H3817T3jhhaUqe4IGIeC-29" target="H3817T3jhhaUqe4IGIeC-29">
          <mxGeometry relative="1" as="geometry">
            <Array as="points" />
          </mxGeometry>
        </mxCell>
        <mxCell id="H3817T3jhhaUqe4IGIeC-39" style="edgeStyle=orthogonalEdgeStyle;rounded=0;orthogonalLoop=1;jettySize=auto;html=1;entryX=0.25;entryY=1;entryDx=0;entryDy=0;strokeColor=default;align=center;verticalAlign=middle;fontFamily=Helvetica;fontSize=11;fontColor=default;labelBackgroundColor=default;endArrow=classic;endFill=1;startArrow=classic;startFill=1;" edge="1" parent="1" target="H3817T3jhhaUqe4IGIeC-37">
          <mxGeometry relative="1" as="geometry">
            <mxPoint x="575" y="340" as="sourcePoint" />
            <Array as="points">
              <mxPoint x="575" y="340" />
              <mxPoint x="625" y="340" />
            </Array>
          </mxGeometry>
        </mxCell>
        <mxCell id="H3817T3jhhaUqe4IGIeC-37" value="UDFs" style="shape=parallelogram;perimeter=parallelogramPerimeter;whiteSpace=wrap;html=1;fixedSize=1;fontFamily=Helvetica;fontSize=11;fontColor=default;labelBackgroundColor=default;" vertex="1" parent="1">
          <mxGeometry x="595" y="180" width="120" height="140" as="geometry" />
        </mxCell>
        <mxCell id="H3817T3jhhaUqe4IGIeC-42" value="" style="endArrow=classic;html=1;rounded=0;strokeColor=default;align=center;verticalAlign=middle;fontFamily=Helvetica;fontSize=11;fontColor=default;labelBackgroundColor=default;edgeStyle=orthogonalEdgeStyle;exitX=0.309;exitY=0.012;exitDx=0;exitDy=0;exitPerimeter=0;entryX=0.5;entryY=1;entryDx=0;entryDy=0;startArrow=classic;startFill=1;" edge="1" parent="1" source="H3817T3jhhaUqe4IGIeC-29" target="H3817T3jhhaUqe4IGIeC-6">
          <mxGeometry width="50" height="50" relative="1" as="geometry">
            <mxPoint x="294.48" y="310" as="sourcePoint" />
            <mxPoint x="344.48" y="260" as="targetPoint" />
            <Array as="points">
              <mxPoint x="285" y="321" />
            </Array>
          </mxGeometry>
        </mxCell>
        <mxCell id="H3817T3jhhaUqe4IGIeC-49" style="edgeStyle=orthogonalEdgeStyle;rounded=0;orthogonalLoop=1;jettySize=auto;html=1;entryX=0.5;entryY=0;entryDx=0;entryDy=0;strokeColor=default;align=center;verticalAlign=middle;fontFamily=Helvetica;fontSize=11;fontColor=default;labelBackgroundColor=default;endArrow=none;endFill=0;shape=link;" edge="1" parent="1" target="H3817T3jhhaUqe4IGIeC-1">
          <mxGeometry relative="1" as="geometry">
            <mxPoint x="365.02857142857147" y="160" as="sourcePoint" />
          </mxGeometry>
        </mxCell>
        <mxCell id="H3817T3jhhaUqe4IGIeC-50" value="Triggers / Indexes" style="rounded=1;whiteSpace=wrap;html=1;fontFamily=Helvetica;fontSize=11;fontColor=default;labelBackgroundColor=default;" vertex="1" parent="1">
          <mxGeometry x="155" y="130" width="420" height="30" as="geometry" />
        </mxCell>
        <mxCell id="H3817T3jhhaUqe4IGIeC-53" value="App" style="shape=umlActor;verticalLabelPosition=bottom;verticalAlign=top;html=1;outlineConnect=0;fontFamily=Helvetica;fontSize=11;fontColor=default;labelBackgroundColor=default;strokeWidth=2;" vertex="1" parent="1">
          <mxGeometry x="295" y="430" width="30" height="60" as="geometry" />
        </mxCell>
        <mxCell id="H3817T3jhhaUqe4IGIeC-55" value="&lt;h1 style=&quot;margin-top: 0px;&quot;&gt;AcademiQuest&lt;br&gt;&lt;/h1&gt;" style="text;html=1;whiteSpace=wrap;overflow=hidden;rounded=0;fontFamily=Helvetica;fontSize=11;fontColor=default;labelBackgroundColor=default;" vertex="1" parent="1">
          <mxGeometry x="615" y="480" width="160" height="40" as="geometry" />
        </mxCell>
        <mxCell id="H3817T3jhhaUqe4IGIeC-57" style="edgeStyle=orthogonalEdgeStyle;rounded=0;orthogonalLoop=1;jettySize=auto;html=1;strokeColor=default;align=center;verticalAlign=middle;fontFamily=Helvetica;fontSize=11;fontColor=default;labelBackgroundColor=default;endArrow=classic;endFill=1;startArrow=classic;startFill=1;" edge="1" parent="1">
          <mxGeometry relative="1" as="geometry">
            <mxPoint x="350" y="360" as="sourcePoint" />
            <mxPoint x="330" y="450" as="targetPoint" />
            <Array as="points">
              <mxPoint x="350" y="360" />
              <mxPoint x="350" y="450" />
              <mxPoint x="310" y="450" />
            </Array>
          </mxGeometry>
        </mxCell>
      </root>
    </mxGraphModel>
  </diagram>
</mxfile>
